<!-- The lamplit doorway — same artwork as src/components/BrandMark.tsx and the
     PWA icons in /icons. If the mark changes, change all three together. -->
<svg width="48" height="48" viewBox="0 0 48 48" fill="none" xmlns="http://www.w3.org/2000/svg">
  <defs>
    <radialGradient id="g" cx="50%" cy="50%" r="50%">
      <stop offset="0%" stop-color="oklch(0.82 0.11 78)" stop-opacity="0.55"/>
      <stop offset="55%" stop-color="oklch(0.74 0.10 72)" stop-opacity="0.18"/>
      <stop offset="100%" stop-color="oklch(0.70 0.10 70)" stop-opacity="0"/>
    </radialGradient>
    <linearGradient id="f" x1="0" y1="0" x2="24" y2="24" gradientUnits="userSpaceOnUse">
      <stop offset="0%" stop-color="oklch(0.80 0.11 75)"/>
      <stop offset="100%" stop-color="oklch(0.63 0.105 65)"/>
    </linearGradient>
    <linearGradient id="n" x1="0" y1="48" x2="0" y2="6" gradientUnits="userSpaceOnUse">
      <stop offset="0%" stop-color="oklch(0.19 0.028 268)"/>
      <stop offset="100%" stop-color="oklch(0.26 0.035 272)"/>
    </linearGradient>
  </defs>
  <path d="M11 42 V20.5 C11 12.7 16.6 6.8 24 6.8 C31.4 6.8 37 12.7 37 20.5 V42 Z" fill="url(#n)"/>
  <circle cx="24" cy="27" r="12.5" fill="url(#g)"/>
  <g transform="translate(16.5 19) scale(0.63)">
    <path d="M12 20.5c-.4 0-.8-.15-1.1-.43C6.3 15.9 3.5 13.3 3.5 9.9 3.5 7.4 5.4 5.5 7.8 5.5c1.5 0 2.9.7 3.7 1.9l.5.7.5-.7c.8-1.2 2.2-1.9 3.7-1.9 2.4 0 4.3 1.9 4.3 4.4 0 3.4-2.8 6-7.4 10.17-.3.28-.7.43-1.1.43Z" fill="url(#f)"/>
    <circle cx="9.1" cy="9.2" r="1.5" fill="oklch(0.93 0.055 85)" opacity="0.9"/>
  </g>
  <path d="M11 42 V20.5 C11 12.7 16.6 6.8 24 6.8 C31.4 6.8 37 12.7 37 20.5 V42" stroke="oklch(0.72 0.095 72)" stroke-width="2.4" stroke-linecap="round" stroke-linejoin="round"/>
  <path d="M8 42 H40" stroke="oklch(0.72 0.095 72)" stroke-width="2.4" stroke-linecap="round" opacity="0.65"/>
</svg>
